<?xml version="1.0" encoding="UTF-8" standalone="no"?>
<!-- Created with Inkscape (http://www.inkscape.org/) -->

<svg
   xmlns:dc="http://purl.org/dc/elements/1.1/"
   xmlns:cc="http://creativecommons.org/ns#"
   xmlns:rdf="http://www.w3.org/1999/02/22-rdf-syntax-ns#"
   xmlns:svg="http://www.w3.org/2000/svg"
   xmlns="http://www.w3.org/2000/svg"
   xmlns:sodipodi="http://sodipodi.sourceforge.net/DTD/sodipodi-0.dtd"
   xmlns:inkscape="http://www.inkscape.org/namespaces/inkscape"
   width="6.482285mm"
   height="8.4666672mm"
   viewBox="0 0 6.482285 8.4666672"
   version="1.1"
   id="svg8"
   sodipodi:docname="drawing.svg"
   inkscape:version="0.92.3 (2405546, 2018-03-11)">
  <defs
     id="defs2" />
  <sodipodi:namedview
     id="base"
     pagecolor="#ffffff"
     bordercolor="#666666"
     borderopacity="1.0"
     inkscape:pageopacity="0.0"
     inkscape:pageshadow="2"
     inkscape:zoom="19.067924"
     inkscape:cx="13.283016"
     inkscape:cy="16.591636"
     inkscape:document-units="mm"
     inkscape:current-layer="layer1"
     showgrid="false"
     inkscape:window-width="1533"
     inkscape:window-height="845"
     inkscape:window-x="67"
     inkscape:window-y="27"
     inkscape:window-maximized="1"
     fit-margin-top="0"
     fit-margin-left="0"
     fit-margin-right="0"
     fit-margin-bottom="0" />
  <metadata
     id="metadata5">
    <rdf:RDF>
      <cc:Work
         rdf:about="">
        <dc:format>image/svg+xml</dc:format>
        <dc:type
           rdf:resource="http://purl.org/dc/dcmitype/StillImage" />
        <dc:title></dc:title>
      </cc:Work>
    </rdf:RDF>
  </metadata>
  <g
     inkscape:label="Layer 1"
     inkscape:groupmode="layer"
     id="layer1"
     transform="translate(-106.37195,-41.790477)">
    <path
       id="path123"
       style="opacity:1;fill:#000000;fill-opacity:1;fill-rule:nonzero;stroke:#000000;stroke-width:0.39687499;stroke-linecap:round;stroke-linejoin:miter;stroke-miterlimit:4;stroke-dasharray:none;stroke-opacity:1"
       d="m 109.6131,41.988914 c -0.58473,0 -1.05834,0.473604 -1.05834,1.058333 0,0.235479 0.0767,0.452437 0.20638,0.629708 -0.51594,0.296334 -0.86784,0.849313 -0.86784,1.486959 0,0.537104 0.24871,1.016 0.63765,1.330854 -0.79375,0.280458 -1.96056,1.468437 -1.96056,3.563938 h 6.08541 c 0,-2.095501 -1.16681,-3.28348 -1.96056,-3.563938 0.38894,-0.314854 0.63765,-0.79375 0.63765,-1.330854 0,-0.637646 -0.3519,-1.190625 -0.86784,-1.486959 0.12965,-0.177271 0.20638,-0.394229 0.20638,-0.629708 0,-0.584729 -0.47361,-1.058333 -1.05833,-1.058333 z"
       inkscape:connector-curvature="0" />
  </g>
</svg>
